<?xml version="1.0" encoding="UTF-8"?>
<svg width="807.96417" height="529.91284" xmlns="http://www.w3.org/2000/svg" xmlns:svg="http://www.w3.org/2000/svg" xmlns:xlink="http://www.w3.org/1999/xlink">
 <defs>
  <linearGradient id="linearGradient10891">
   <stop stop-color="#999" id="stop10893" offset="0"/>
   <stop stop-color="#999" stop-opacity="0" id="stop10895" offset="1"/>
  </linearGradient>
  <linearGradient y2="-Infinity" x2="0.041916" y1="Infinity" x1="0.622755" id="linearGradient17572" xlink:href="#linearGradient10891"/>
  <linearGradient y2="-Infinity" x2="0.041916" y1="Infinity" x1="0.622755" id="linearGradient17574" xlink:href="#linearGradient10891"/>
 </defs>
 <metadata id="metadata6">image/svg+xmlautoZS a MS Machovo nam.(czautocar</metadata>
 <g>
  <title>Layer 1</title>
  <g display="none" id="layer1"/>
  <g display="inline" id="layer2">
   <g id="g17642">
    <path fill="black" fill-rule="evenodd" stroke="black" stroke-width="1px" d="m801.286937,318.642045l2.7921,83.76298l-4.18815,65.61433c0,0 -2.7921,60.03014 -41.88149,60.03014c-39.08939,0 -78.17878,13.9605 -76.78273,-47.46569c1.39605,-61.42619 115.87212,-160.54571 120.06027,-161.94176z" id="path17495"/>
    <path fill="black" fill-rule="evenodd" stroke="black" stroke-width="1px" d="m10.500717,317.927655l-2.7921,83.76298l4.18815,65.61433c0,0 2.7921,60.03014 41.88149,60.03014c39.08939,0 78.17878,13.9605 76.78273,-47.46569c-1.39605,-61.42619 -115.87212,-160.54571 -120.06027,-161.94176z" id="path17493"/>
    <path fill="#ff0000" fill-rule="evenodd" stroke="black" stroke-width="1px" d="m445.316427,487.541025l-248.60749,2.93631l-94.94065,-5.87262c0,0 -50.89602,5.87262 -72.42896,-26.42678c-21.53293,-32.2994 -27.40554,-148.77298 -27.40554,-148.77298c0,0 -14.68155,-79.28034 49.91725,-124.30375c64.59879,-45.0234 53.83232,-33.27817 53.83232,-33.27817l34.25694,-64.59879c0,0 34.74633,-65.08818 71.45019,-71.45018c55.5341,-9.62591 104.72835,-9.7877 104.72835,-9.7877c0,0 194.55245,-16.63165 299.99484,8.01993c19.20712,4.49047 65.08623,75.17549 65.08623,75.17549l31.32062,57.74741c23.80645,9.73228 35.48926,16.08609 56.89602,33.84186c0,0 38.43849,21.53293 38.04464,98.29204c-0.41257,80.40712 -12.72401,177.1573 -35.23571,188.90254c-22.5117,11.74523 -26.92326,9.24248 -42.8228,10.724c-19.64536,1.83055 -58.18761,3.78809 -114.75483,6.288c-56.56722,2.4999 -131.15941,3.54216 -142.90464,3.54216c-23.49048,0 -26.42678,-1.95754 -26.42678,-0.97877z" id="path13795"/>
    <g id="g10918">
     <g id="g10901">
      <path fill="black" stroke="#d0d0d0" stroke-width="2.697" stroke-miterlimit="4" id="path9117" d="m134.202067,434.982539a25.998249,25.401858 0 1 1 -51.996489,0a25.998249,25.401858 0 1 1 51.996489,0z"/>
      <path fill="url(#linearGradient17572)" stroke="#d0d0d0" stroke-width="0" stroke-miterlimit="4" id="path9119" d="m133.251193,435.131686a24.898367,24.302004 0 1 1 -49.796734,0a24.898367,24.302004 0 1 1 49.796734,0z"/>
      <path fill="black" stroke="#d0d0d0" stroke-width="0" stroke-miterlimit="4" id="path10899" d="m117.44742,433.790431a6.112771,5.665502 0 1 1 -12.225543,0a6.112771,5.665502 0 1 1 12.225543,0z"/>
     </g>
     <path fill="black" fill-rule="evenodd" stroke="black" stroke-width="1px" id="path10906" d="m130.064867,407.904315l8.14057,11.04791l2.71352,6.00852l1.16294,4.26411l87.22036,0l-6.20234,-20.1576l-93.03505,-1.16294z"/>
     <path fill="black" fill-rule="evenodd" stroke="black" stroke-width="1px" id="path10908" d="m142.081897,433.682785l89.35241,1.7444l6.20234,13.76144l5.81469,9.3035l-104.08297,-1.35676l1.93823,-13.56761l0.7753,-9.88497z"/>
    </g>
    <path fill="black" fill-rule="evenodd" stroke="black" stroke-width="1.036052px" d="m522.548067,467.095655l-109.67244,1.27752l-0.8074,0l-123.16281,0l8.94872,6.38758l2.38858,2.46156l4.20523,1.96301l5.65183,0.24927l79.96668,-0.18695l0.90833,0.1558l22.33819,-0.18696l7.30028,-0.03116l0.30278,-0.06232l80.57223,-0.71665l5.68547,-0.34275l4.13795,-1.99418l2.35492,-2.52387l8.88146,-6.4499z" id="path10929"/>
    <path fill="black" stroke="#d0d0d0" stroke-width="0" stroke-miterlimit="4" d="m415.647697,216.741455c-2.76878,-0.00253 -5.38064,0.01808 -7.8125,0.0625c-1.21593,0.02221 -2.43509,0.04998 -3.65625,0.09375c-0.05204,-0.00026 -0.10422,0.00022 -0.15625,0c-0.29136,-0.00124 -0.58398,0 -0.875,0c-38.91628,0 -123.60058,6.96898 -165.3125,15.6875c-12.06701,2.52221 -7.26152,64.26717 -0.8125,84.65625c5.02876,15.89877 5.4525,53.50042 39.03125,65.75c21.02735,7.6708 82.37549,8.96848 122.34375,9.125c0.09569,0.00037 0.18581,-0.00036 0.28125,0c1.83891,0.03201 3.66804,0.01699 5.5,0c1.28318,0.00188 2.77668,0.03125 4,0.03125c3.89812,0 7.82697,-0.12204 11.75,-0.34375c39.94901,-0.96536 97.88158,-3.47961 118.03125,-11.25c33.34948,-12.86068 33.0749,-50.4808 37.8125,-66.46875c6.07563,-20.50346 9.76731,-82.32356 -2.34375,-84.625c-39.24768,-7.45817 -116.24959,-12.68075 -157.78125,-12.71875z" id="path10937"/>
    <g id="g13873">
     <path fill="black" fill-rule="evenodd" stroke="black" stroke-width="1px" id="path11844" d="m29.738137,322.031555c44.61937,0.77672 89.23826,2.51048 133.86772,1.40579c18.53066,-0.21548 35.06132,-0.43095 53.59198,-0.64642c10.24672,2.52822 14.94581,10.54551 16.25314,20.55637c0.24402,6.86702 7.82608,20.02811 -1.73375,22.27321c-57.94336,-0.57109 -113.97859,-0.78482 -171.94047,-2.16407c-9.29018,-0.61353 -18.65225,-1.7082 -27.19772,-5.62996c-7.74842,-4.9439 -5.3592,-15.83284 -5.60253,-23.50495c0.27728,-4.10691 1.87586,-8.25338 2.76163,-12.28997z"/>
     <rect fill="#bdb7b7" stroke="#d0d0d0" stroke-width="0" stroke-miterlimit="4" transform="matrix(0.918448,-0.395543,0.395543,0.918448,0,0) " y="325.198949" x="-61.3076" height="46.320881" width="2.657756" id="rect11865"/>
     <rect fill="#bdb7b7" stroke="#d0d0d0" stroke-width="0" stroke-miterlimit="4" transform="matrix(0.918448,-0.395543,0.395543,0.918448,0,0) " y="331.232609" x="-46.337096" height="46.320904" width="2.657757" id="rect12752"/>
     <rect fill="#bdb7b7" stroke="#d0d0d0" stroke-width="0" stroke-miterlimit="4" transform="matrix(0.918448,-0.395543,0.395543,0.918448,0,0) " y="339.240459" x="-28.702788" height="46.320904" width="2.657757" id="rect12754"/>
     <rect fill="#bdb7b7" stroke="#d0d0d0" stroke-width="0" stroke-miterlimit="4" transform="matrix(0.918448,-0.395543,0.395543,0.918448,0,0) " y="346.948009" x="-11.765914" height="46.320904" width="2.657757" id="rect12756"/>
     <rect fill="#bdb7b7" stroke="#d0d0d0" stroke-width="0" stroke-miterlimit="4" transform="matrix(0.918448,-0.395543,0.395543,0.918448,0,0) " y="355.207829" x="7.413434" height="46.320904" width="2.657757" id="rect12758"/>
     <rect fill="#bdb7b7" stroke="#d0d0d0" stroke-width="0" stroke-miterlimit="4" transform="matrix(0.918448,-0.395543,0.395543,0.918448,0,0) " y="363.617869" x="26.941495" height="46.320904" width="2.657757" id="rect12760"/>
     <rect fill="#bdb7b7" stroke="#d0d0d0" stroke-width="0" stroke-miterlimit="4" transform="matrix(0.918448,-0.395543,0.395543,0.918448,0,0) " y="372.376349" x="46.319326" height="46.320881" width="2.657756" id="rect12762"/>
     <rect fill="#bdb7b7" stroke="#d0d0d0" stroke-width="0" stroke-miterlimit="4" transform="matrix(0.918448,-0.395543,0.395543,0.918448,0,0) " y="380.287789" x="65.64891" height="46.320904" width="2.657757" id="rect12764"/>
     <rect fill="#bdb7b7" stroke="#d0d0d0" stroke-width="0" stroke-miterlimit="4" transform="matrix(0.918448,-0.395543,0.395543,0.918448,0,0) " y="318.617559" x="-75.629193" height="46.320904" width="2.657757" id="rect12766"/>
     <rect fill="#bdb7b7" stroke="#d0d0d0" stroke-width="0" stroke-miterlimit="4" transform="matrix(0.918448,-0.395543,0.395543,0.918448,0,0) " y="311.961279" x="-90.125064" height="46.320904" width="2.657757" id="rect12768"/>
     <path fill="#bdb7b7" stroke="#d0d0d0" stroke-width="0" stroke-miterlimit="4" id="rect12772" d="m25.431687,326.724485l2.44101,-1.05126l15.66415,34.94976l-2.44101,1.05125l-15.66415,-34.94975z"/>
    </g>
    <g id="g13862">
     <path fill="black" stroke="black" stroke-width="1.116889" stroke-miterlimit="4" id="path8230" d="m202.602027,228.266295l-98.65023,1.07161c-2.01713,-0.31397 -4.08694,-0.471 -6.1866,-0.471c-23.14761,0 -41.92771,19.77241 -41.92771,44.1299c0,24.35746 18.7801,42.78518 41.92771,42.78517c11.57381,0 22.33053,-3.29942 30.76492,-9.12618c0.69537,-0.48037 1.36736,-1.00752 1.98375,-1.59418l0.40348,0.76086l84.9311,0l-1.54666,-11.30421l-11.69976,-66.25197z"/>
     <g id="g10910">
      <path fill="#9b9b9b" stroke="black" stroke-miterlimit="4" d="m200.085197,229.678955l-95.9375,1.15625c-1.87478,-0.27081 -3.79851,-0.40625 -5.75,-0.40625c-21.51401,0 -38.96875,17.05392 -38.96875,38.0625c0,21.00858 17.45474,38.06251 38.96875,38.0625c10.75701,0 20.7546,-4.00561 28.59375,-9.03125c0.64629,-0.41433 1.27086,-0.869 1.84375,-1.375l0.375,0.65625l77.4375,0l-1.4375,-9.75l-5.125,-57.375z" id="rect1966"/>
      <path fill="#999" stroke="#d0d0d0" stroke-width="2.697" stroke-miterlimit="4" id="path6427" d="m201.504841,262.594325a30.443051,31.372128 0 1 1 -60.886102,0a30.443051,31.372128 0 1 1 60.886102,0z"/>
      <path fill="#2c2c2c" stroke="#d0d0d0" stroke-width="2.615687" stroke-miterlimit="4" d="m201.125917,262.728845c-18.11162,0.18835 15.85929,0.19571 -18.96468,0.09676c-6.01176,-0.01708 -14.07376,-0.03733 -24.80788,-0.06036c-4.49394,-0.00964 -10.09812,-0.0337 -17.11355,-0.0364c0,-17.31741 13.63849,-31.37211 30.44306,-31.37211c16.80457,0 30.44305,14.0547 30.44305,31.37211z" id="path6429"/>
      <path fill="#616161" stroke="white" stroke-miterlimit="4" id="path2865" d="m137.285688,266.914397a37.480525,33.715359 0 1 1 -74.961037,0a37.480525,33.715359 0 1 1 74.961037,0z"/>
      <path fill="white" stroke="#d0d0d0" stroke-width="3.23873" stroke-miterlimit="4" d="m99.414137,268.012955l-26.9395,20.74214l24.5551,-23.78863l-2.15826,-31.11018l6.00167,30.47442l29.63564,20.04984l-31.09465,-16.36759z" id="path5524"/>
      <path fill="#8d8d8d" stroke="#d0d0d0" stroke-width="1.930057" stroke-miterlimit="4" id="path4637" d="m116.81834,265.703847a18.089198,16.341091 0 1 1 -36.178396,0a18.089198,16.341091 0 1 1 36.178396,0z"/>
     </g>
     <path fill="#bdb7b7" stroke="#d0d0d0" stroke-width="0" stroke-miterlimit="4" d="m176.53831,243.960964a6.028156,5.192622 0 1 1 -12.056312,0a6.028156,5.192622 0 1 1 12.056312,0z" id="path13692"/>
    </g>
    <g display="inline" id="g13887" transform="matrix(-1,0,0,1,1040.363,-1.46315) ">
     <g id="g13889">
      <path fill="black" stroke="#d0d0d0" stroke-width="2.697" stroke-miterlimit="4" id="path13891" d="m363.281672,434.982539a25.998249,25.401858 0 1 1 -51.996489,0a25.998249,25.401858 0 1 1 51.996489,0z"/>
      <path fill="url(#linearGradient17574)" stroke="#d0d0d0" stroke-width="0" stroke-miterlimit="4" id="path13893" d="m362.330798,435.131686a24.898367,24.302004 0 1 1 -49.796734,0a24.898367,24.302004 0 1 1 49.796734,0z"/>
      <path fill="black" stroke="#d0d0d0" stroke-width="0" stroke-miterlimit="4" id="path13895" d="m346.527025,433.790431a6.112771,5.665502 0 1 1 -12.225543,0a6.112771,5.665502 0 1 1 12.225543,0z"/>
     </g>
     <path fill="black" fill-rule="evenodd" stroke="black" stroke-width="1px" id="path13897" d="m359.144473,407.904315l8.14057,11.04791l2.71352,6.00852l1.16294,4.26411l87.22036,0l-6.20234,-20.1576l-93.03505,-1.16294z"/>
     <path fill="black" fill-rule="evenodd" stroke="black" stroke-width="1px" id="path13899" d="m371.161503,433.682785l89.35241,1.7444l6.20234,13.76144l5.81469,9.3035l-104.08297,-1.35676l1.93823,-13.56761l0.7753,-9.88497z"/>
    </g>
    <g display="inline" id="g13901" transform="matrix(-1,0,0,1,1040.363,-1.46315) ">
     <path fill="black" fill-rule="evenodd" stroke="black" stroke-width="1px" id="path13903" d="m258.817743,322.031555c44.61937,0.77672 89.23826,2.51048 133.86772,1.40579c18.53066,-0.21548 35.06132,-0.43095 53.59198,-0.64642c10.24672,2.52822 14.94581,10.54551 16.25314,20.55637c0.24402,6.86702 7.82608,20.02811 -1.73375,22.27321c-57.94336,-0.57109 -113.97859,-0.78482 -171.94047,-2.16407c-9.29018,-0.61353 -18.65225,-1.7082 -27.19772,-5.62996c-7.74842,-4.9439 -5.3592,-15.83284 -5.60253,-23.50495c0.27728,-4.10691 1.87586,-8.25338 2.76163,-12.28997z"/>
     <rect fill="#bdb7b7" stroke="#d0d0d0" stroke-width="0" stroke-miterlimit="4" transform="matrix(0.918448,-0.395543,0.395543,0.918448,0,0) " y="415.809693" x="149.089896" height="46.320881" width="2.657756" id="rect13905"/>
     <rect fill="#bdb7b7" stroke="#d0d0d0" stroke-width="0" stroke-miterlimit="4" transform="matrix(0.918448,-0.395543,0.395543,0.918448,0,0) " y="421.843353" x="164.0604" height="46.320904" width="2.657757" id="rect13907"/>
     <rect fill="#bdb7b7" stroke="#d0d0d0" stroke-width="0" stroke-miterlimit="4" transform="matrix(0.918448,-0.395543,0.395543,0.918448,0,0) " y="429.851203" x="181.694708" height="46.320904" width="2.657757" id="rect13909"/>
     <rect fill="#bdb7b7" stroke="#d0d0d0" stroke-width="0" stroke-miterlimit="4" transform="matrix(0.918448,-0.395543,0.395543,0.918448,0,0) " y="437.558753" x="198.631582" height="46.320904" width="2.657757" id="rect13911"/>
     <rect fill="#bdb7b7" stroke="#d0d0d0" stroke-width="0" stroke-miterlimit="4" transform="matrix(0.918448,-0.395543,0.395543,0.918448,0,0) " y="445.818573" x="217.81093" height="46.320904" width="2.657757" id="rect13913"/>
     <rect fill="#bdb7b7" stroke="#d0d0d0" stroke-width="0" stroke-miterlimit="4" transform="matrix(0.918448,-0.395543,0.395543,0.918448,0,0) " y="454.228613" x="237.338991" height="46.320904" width="2.657757" id="rect13915"/>
     <rect fill="#bdb7b7" stroke="#d0d0d0" stroke-width="0" stroke-miterlimit="4" transform="matrix(0.918448,-0.395543,0.395543,0.918448,0,0) " y="462.987093" x="256.716822" height="46.320881" width="2.657756" id="rect13917"/>
     <rect fill="#bdb7b7" stroke="#d0d0d0" stroke-width="0" stroke-miterlimit="4" transform="matrix(0.918448,-0.395543,0.395543,0.918448,0,0) " y="470.898533" x="276.046406" height="46.320904" width="2.657757" id="rect13919"/>
     <rect fill="#bdb7b7" stroke="#d0d0d0" stroke-width="0" stroke-miterlimit="4" transform="matrix(0.918448,-0.395543,0.395543,0.918448,0,0) " y="409.228303" x="134.768303" height="46.320904" width="2.657757" id="rect13921"/>
     <rect fill="#bdb7b7" stroke="#d0d0d0" stroke-width="0" stroke-miterlimit="4" transform="matrix(0.918448,-0.395543,0.395543,0.918448,0,0) " y="402.572023" x="120.272432" height="46.320904" width="2.657757" id="rect13923"/>
     <path fill="#bdb7b7" stroke="#d0d0d0" stroke-width="0" stroke-miterlimit="4" id="path13925" d="m254.511293,326.724485l2.44101,-1.05126l15.66415,34.94976l-2.44101,1.05125l-15.66415,-34.94975z"/>
    </g>
    <g display="inline" id="g13927" transform="matrix(-1,0,0,1,1040.363,-1.46315) ">
     <path fill="black" stroke="black" stroke-width="1.116889" stroke-miterlimit="4" id="path13929" d="m431.681633,228.266295l-98.65023,1.07161c-2.01713,-0.31397 -4.08694,-0.471 -6.1866,-0.471c-23.14761,0 -41.92771,19.77241 -41.92771,44.1299c0,24.35746 18.7801,42.78518 41.92771,42.78517c11.57381,0 22.33053,-3.29942 30.76492,-9.12618c0.69537,-0.48037 1.36736,-1.00752 1.98375,-1.59418l0.40348,0.76086l84.9311,0l-1.54666,-11.30421l-11.69976,-66.25197z"/>
     <g id="g13931">
      <path fill="#9b9b9b" stroke="black" stroke-miterlimit="4" d="m429.164803,229.678955l-95.9375,1.15625c-1.87478,-0.27081 -3.79851,-0.40625 -5.75,-0.40625c-21.51401,0 -38.96875,17.05392 -38.96875,38.0625c0,21.00858 17.45474,38.06251 38.96875,38.0625c10.75701,0 20.7546,-4.00561 28.59375,-9.03125c0.64629,-0.41433 1.27086,-0.869 1.84375,-1.375l0.375,0.65625l77.4375,0l-1.4375,-9.75l-5.125,-57.375z" id="path13933"/>
      <path fill="#999" stroke="#d0d0d0" stroke-width="2.697" stroke-miterlimit="4" id="path13935" d="m430.584446,262.594325a30.443051,31.372128 0 1 1 -60.886102,0a30.443051,31.372128 0 1 1 60.886102,0z"/>
      <path fill="#2c2c2c" stroke="#d0d0d0" stroke-width="2.615687" stroke-miterlimit="4" d="m430.205523,262.728845c-18.11162,0.18835 15.85929,0.19571 -18.96468,0.09676c-6.01176,-0.01708 -14.07376,-0.03733 -24.80788,-0.06036c-4.49394,-0.00964 -10.09812,-0.0337 -17.11355,-0.0364c0,-17.31741 13.63849,-31.37211 30.44306,-31.37211c16.80457,0 30.44305,14.0547 30.44305,31.37211z" id="path13937"/>
      <path fill="#616161" stroke="white" stroke-miterlimit="4" id="path13939" d="m366.365293,266.914397a37.480525,33.715359 0 1 1 -74.961037,0a37.480525,33.715359 0 1 1 74.961037,0z"/>
      <path fill="white" stroke="#d0d0d0" stroke-width="3.23873" stroke-miterlimit="4" d="m328.493743,268.012955l-26.9395,20.74214l24.5551,-23.78863l-2.15826,-31.11018l6.00167,30.47442l29.63564,20.04984l-31.09465,-16.36759z" id="path13941"/>
      <path fill="#8d8d8d" stroke="#d0d0d0" stroke-width="1.930057" stroke-miterlimit="4" id="path13943" d="m345.897945,265.703847a18.089198,16.341091 0 1 1 -36.178396,0a18.089198,16.341091 0 1 1 36.178396,0z"/>
     </g>
     <path fill="#bdb7b7" stroke="#d0d0d0" stroke-width="0" stroke-miterlimit="4" d="m405.617915,243.960964a6.028156,5.192622 0 1 1 -12.056312,0a6.028156,5.192622 0 1 1 12.056312,0z" id="path13945"/>
    </g>
    <path fill="black" fill-rule="evenodd" stroke="black" stroke-width="1px" d="m193.280677,31.966205c0,0 -28.15821,35.83773 -37.11764,51.19675c-8.95944,15.35903 -37.11765,65.91582 -37.11765,65.91582c0,0 252.78397,-15.35902 296.30121,-14.0791c43.51724,1.27992 182.21948,-0.34819 280.30223,7.03955c1.94086,0.14619 -20.61771,-42.89108 -37.74186,-69.56594c-17.12416,-26.67486 -28.81391,-36.9873 -35.85347,-45.62676c-14.07911,-17.2789 -364.77687,-8.95943 -428.77282,5.11968z" id="path16606"/>
    <path fill="black" stroke="#d0d0d0" stroke-width="0" stroke-miterlimit="4" d="m545.460244,167.476012c-84.27701,-0.55663 -147.17643,-1.12648 -279.20993,0c0,-9.63274 62.54302,-17.45062 139.60496,-17.45062c77.06195,0 139.60497,7.81788 139.60497,17.45062z" id="path17569"/>
   </g>
  </g>
 </g>
</svg>